<svg width="1322" height="139" viewBox="0 0 1322 139" fill="none" xmlns="http://www.w3.org/2000/svg">
<g clip-path="url(#clip0_51_1545)">
<path d="M136.23 62.32C136.11 62.27 135.99 62.25 135.86 62.25H133.51C133.26 62.25 133.02 62.35 132.85 62.52C132.67 62.69 132.57 62.93 132.57 63.18V69.34C132.57 69.98 132.05 70.49 131.41 70.49H125.07C124.55 70.49 124.13 70.9 124.13 71.42V73.76C124.13 74.28 124.56 74.69 125.07 74.69H131.36C132.02 74.69 132.57 75.22 132.57 75.89V82C132.57 82.52 133 82.93 133.51 82.93H135.86C135.99 82.93 136.11 82.91 136.23 82.86C136.58 82.72 136.8 82.38 136.8 82V63.2C136.8 62.82 136.58 62.48 136.23 62.34V62.32Z" fill="white"/>
<path d="M118.8 62.25H116.45C115.94 62.25 115.52 62.66 115.51 63.18V81.98C115.51 82.49 115.93 82.91 116.45 82.91H118.8C119.31 82.91 119.73 82.5 119.74 81.98V63.18C119.74 62.66 119.31 62.25 118.8 62.25Z" fill="white"/>
<path d="M163.45 36.29C153.18 26.56 140.75 21.69 126.17 21.67C111.58 21.69 99.16 26.56 88.89 36.29C88.84 36.33 88.8 36.38 88.75 36.42C88.12 26.28 84.01 17.81 76.39 11.01C68.07 3.61 57.6 0 45.14 0C31.96 0 21.13 4.15 12.82 12.28C4.51 20.4 0.36 29.79 0.36 40.44C0.36 43.87 0.72 47.3 1.62 50.73H32.86C32.32 47.66 32.14 44.95 32.14 42.6C32.14 38.09 33.22 34.66 35.57 32.13C37.92 29.6 40.81 28.34 44.42 28.34C48.21 28.34 51.28 29.6 53.63 31.95C55.98 34.3 57.06 37.55 57.06 41.7C57.06 43.96 56.6 46.37 55.68 48.94C55.5 49.45 55.29 49.97 55.07 50.5C54.96 50.76 54.84 51.03 54.72 51.29C54.48 51.82 54.22 52.36 53.94 52.9C53.8 53.17 53.66 53.45 53.51 53.72C52.03 56.47 50.08 59.37 47.66 62.42C46.93 63.33 46.16 64.26 45.35 65.2C44.81 65.83 44.25 66.46 43.67 67.1C43.38 67.42 43.09 67.74 42.79 68.06C24.37 85.27 9.22 91.82 0 94.97V110.92H160.92C161.84 110.15 162.74 109.35 163.63 108.51C173.92 98.76 178.98 86.66 178.98 72.4C178.98 58.14 173.74 46.04 163.45 36.29ZM61.7 87.85L63.01 86.48C67.02 82.3 70.52 78.32 73.57 74.53C73.74 79.22 74.48 83.66 75.78 87.85H61.7ZM126.79 92.81H125.53C114.36 92.81 105.3 83.75 105.3 72.58C105.3 61.41 114.36 52.35 125.53 52.35H126.79C137.96 52.35 147.02 61.41 147.02 72.58C147.02 83.75 137.96 92.81 126.79 92.81Z" fill="white"/>
<path d="M669.02 111.61C664.52 111.76 660.14 110.14 656.82 107.1C653.47 103.82 651.66 99.2696 651.85 94.5896V61.2896H641.3V51.0796H651.85V32.8496H663.13V51.0796H677.85V61.2896H663.14V90.9496C662.79 93.8496 663.63 96.7596 665.48 99.0296C666.9 100.4 668.79 101.16 670.76 101.16C671.65 101.16 672.53 101.06 673.39 100.85C674.21 100.66 675.01 100.4 675.78 100.06L679.34 110.03C676.02 111.15 672.53 111.68 669.03 111.61H669.02Z" fill="white"/>
<path d="M715.01 112.61C706.78 112.86 698.84 109.59 693.18 103.62C687.4 97.49 684.31 89.31 684.59 80.89C684.32 72.54 687.31 64.41 692.92 58.23C704.56 46.34 723.64 46.13 735.55 57.75C741.17 64.44 744 73.04 743.45 81.76L743.33 82.97H696.11C696.05 88.28 698.18 93.38 701.99 97.07C709.59 104.39 721.69 104.17 729.01 96.57C730.39 95.14 731.53 93.51 732.41 91.72L742.47 96.58C739.89 101.48 736.01 105.56 731.24 108.37C726.31 111.24 720.7 112.71 715 112.62L715.01 112.61ZM696.99 73.71H731.45C731.2 69.74 729.37 66.04 726.36 63.44C722.91 60.58 718.51 59.13 714.03 59.36C710.02 59.27 706.12 60.66 703.05 63.25C699.92 65.95 697.78 69.63 696.98 73.69V73.72L696.99 73.71Z" fill="white"/>
<path d="M781.87 112.61C773.54 112.84 765.5 109.56 759.7 103.59C753.9 97.4598 750.77 89.2898 750.99 80.8598C750.72 72.4298 753.86 64.2398 759.7 58.1498C765.52 52.1798 773.57 48.9198 781.9 49.1598C787.59 49.0298 793.19 50.6198 797.97 53.7098C802.58 56.7898 806.17 61.1698 808.27 66.2898L797.97 70.5498C795.44 63.5298 788.62 58.9998 781.17 59.3698C776.02 59.3698 771.13 61.6298 767.8 65.5698C760.44 74.4598 760.44 87.3198 767.8 96.2098C774.58 103.84 786.26 104.52 793.89 97.7398C795.92 95.9398 797.52 93.7098 798.59 91.2198L808.64 95.4798C806.58 100.65 802.96 105.05 798.28 108.06C793.38 111.16 787.68 112.74 781.89 112.62L781.87 112.61Z" fill="white"/>
<path d="M818.41 23.6104H829.69V51.0804L829.2 59.3503H829.69C831.61 56.2403 834.35 53.7104 837.6 52.0504C840.99 50.1504 844.81 49.1404 848.7 49.1304C854.99 48.7204 861.16 51.0004 865.69 55.3904C869.92 60.3204 872.06 66.7104 871.63 73.1904V110.64H860.35V75.3904C860.35 64.7004 855.57 59.3503 846 59.3503C841.47 59.3303 837.2 61.4103 834.43 64.9903C831.31 68.6703 829.64 73.3604 829.71 78.1804V110.63H818.41V23.6104Z" fill="white"/>
<path d="M884.88 51.0801H895.67V59.3501H896.16C898.08 56.2401 900.82 53.7101 904.07 52.0501C907.46 50.1501 911.28 49.1401 915.17 49.1301C921.46 48.7201 927.63 51.0001 932.16 55.3901C936.39 60.3201 938.53 66.7101 938.11 73.1901V110.64H926.83V73.9301C927.65 66.6801 922.44 60.1401 915.19 59.3201C914.12 59.2001 913.05 59.2101 911.98 59.3501C907.58 59.3001 903.41 61.3001 900.7 64.7601C897.67 68.3801 896.06 72.9801 896.16 77.7001V110.64H884.88V51.0901V51.0801Z" fill="white"/>
<path d="M947.95 80.8603C947.67 72.4203 950.81 64.2203 956.66 58.1303C962.48 52.1603 970.53 48.9003 978.86 49.1403C987.16 48.8903 995.18 52.1603 1000.94 58.1303C1012.71 71.0003 1012.71 90.7203 1000.94 103.59C995.18 109.57 987.16 112.84 978.86 112.58C970.53 112.82 962.47 109.56 956.66 103.59C950.81 97.5003 947.67 89.3003 947.95 80.8603ZM959.23 80.8603C958.98 86.5903 961.01 92.1803 964.87 96.4203C972.28 104.14 984.56 104.39 992.28 96.9803C992.47 96.8003 992.65 96.6103 992.84 96.4203C1000.36 87.4603 1000.36 74.3803 992.84 65.4203C985.62 57.7003 973.51 57.2903 965.79 64.5103C965.48 64.8003 965.17 65.1103 964.88 65.4203C961.02 69.6103 958.98 75.1703 959.21 80.8603H959.24H959.23Z" fill="white"/>
<path d="M1030.7 23.6104V110.64H1019.42V23.6104H1030.7Z" fill="white"/>
<path d="M1040.4 80.8603C1040.12 72.4203 1043.26 64.2203 1049.11 58.1303C1054.93 52.1603 1062.98 48.9003 1071.31 49.1403C1079.61 48.8903 1087.63 52.1603 1093.39 58.1303C1105.16 71.0003 1105.16 90.7203 1093.39 103.59C1087.63 109.57 1079.61 112.84 1071.31 112.58C1062.98 112.82 1054.92 109.56 1049.11 103.59C1043.26 97.5003 1040.12 89.3003 1040.4 80.8603ZM1051.68 80.8603C1051.43 86.5903 1053.46 92.1803 1057.32 96.4203C1064.73 104.14 1077.01 104.39 1084.73 96.9803C1084.92 96.8003 1085.1 96.6103 1085.29 96.4203C1092.81 87.4603 1092.81 74.3803 1085.29 65.4203C1078.07 57.7003 1065.96 57.2903 1058.24 64.5103C1057.93 64.8003 1057.62 65.1103 1057.33 65.4203C1053.48 69.6203 1051.45 75.1703 1051.69 80.8603H1051.68Z" fill="white"/>
<path d="M1139.13 138.84C1135.94 138.86 1132.75 138.44 1129.68 137.57C1126.84 136.76 1124.14 135.56 1121.65 133.98C1119.31 132.51 1117.22 130.67 1115.46 128.53C1113.75 126.43 1112.42 124.05 1111.54 121.48L1122.21 117.1C1123.38 120.51 1125.62 123.45 1128.59 125.49C1131.69 127.62 1135.38 128.72 1139.14 128.65C1144.48 128.96 1149.7 126.98 1153.49 123.2C1157.11 119.04 1158.96 113.63 1158.64 108.13V102.38H1158.15C1155.97 105.59 1152.99 108.17 1149.5 109.87C1145.83 111.7 1141.77 112.63 1137.67 112.59C1129.92 112.64 1122.53 109.31 1117.43 103.47C1111.88 97.2597 1108.9 89.1797 1109.09 80.8597C1108.89 72.5797 1111.88 64.5397 1117.43 58.3897C1122.5 52.4997 1129.9 49.1197 1137.67 49.1497C1141.77 49.1097 1145.83 50.0497 1149.5 51.8697C1152.99 53.5597 1155.98 56.1497 1158.15 59.3597H1158.64V51.0497H1169.45V108.06C1170.77 123.7 1159.17 137.46 1143.52 138.78C1142.07 138.9 1140.61 138.91 1139.16 138.81H1139.14L1139.13 138.84ZM1139.49 102.39C1144.69 102.55 1149.69 100.36 1153.11 96.4297C1160.47 87.4097 1160.47 74.4497 1153.11 65.4297C1149.71 61.4697 1144.71 59.2397 1139.49 59.3597C1134.28 59.2797 1129.29 61.4997 1125.87 65.4297C1122.12 69.6797 1120.14 75.2097 1120.35 80.8697C1120.12 86.5197 1122.1 92.0397 1125.87 96.2597C1129.28 100.22 1134.26 102.46 1139.49 102.39Z" fill="white"/>
<path d="M1197.75 30.5299C1197.78 32.6399 1196.94 34.6599 1195.42 36.1199C1192.29 39.1999 1187.27 39.1999 1184.14 36.1199C1181.05 33.0699 1181.03 28.0899 1184.08 24.9999C1184.1 24.9799 1184.12 24.9599 1184.14 24.9399C1187.27 21.8599 1192.29 21.8599 1195.42 24.9399C1196.94 26.3999 1197.78 28.4199 1197.75 30.5299ZM1195.42 51.0799V110.64H1184.14V51.0799H1195.42Z" fill="white"/>
<path d="M1236.51 112.61C1228.28 112.86 1220.34 109.59 1214.68 103.62C1208.9 97.49 1205.8 89.31 1206.09 80.89C1205.82 72.54 1208.81 64.41 1214.43 58.23C1226.07 46.34 1245.14 46.13 1257.05 57.75C1262.67 64.44 1265.5 73.04 1264.96 81.76L1264.84 82.97H1217.62C1217.56 88.28 1219.68 93.38 1223.5 97.07C1231.1 104.39 1243.19 104.17 1250.51 96.58C1251.89 95.15 1253.04 93.51 1253.91 91.73L1263.97 96.59C1261.4 101.49 1257.51 105.57 1252.75 108.38C1247.82 111.25 1242.21 112.72 1236.51 112.63V112.61ZM1218.48 73.71H1252.94C1252.69 69.74 1250.86 66.04 1247.85 63.44C1244.4 60.58 1240 59.13 1235.52 59.36C1231.51 59.27 1227.61 60.66 1224.54 63.25C1221.41 65.95 1219.28 69.63 1218.48 73.69V73.72V73.71Z" fill="white"/>
<path d="M1321.87 94.1094C1321.85 99.3394 1319.29 104.239 1315 107.239C1310.01 110.939 1303.91 112.829 1297.71 112.579C1292.04 112.689 1286.47 111.059 1281.76 107.899C1277.29 104.909 1273.86 100.599 1271.95 95.5794L1282.01 91.3194C1283.31 94.6694 1285.55 97.5594 1288.46 99.6594C1291.16 101.599 1294.4 102.649 1297.72 102.639C1300.89 102.759 1304.02 101.949 1306.74 100.329C1308.83 99.2894 1310.21 97.2094 1310.36 94.8794C1310.36 91.0694 1307.41 88.2694 1301.51 86.4894L1291.2 83.9294C1279.5 81.0194 1273.66 75.4294 1273.67 67.1594C1273.55 61.9594 1276.06 57.0494 1280.35 54.0894C1289.85 47.9594 1301.95 47.5194 1311.87 52.9294C1315.93 55.1794 1319.1 58.7394 1320.88 63.0194L1310.82 67.1494C1309.66 64.6194 1307.7 62.5494 1305.24 61.2494C1302.59 59.8094 1299.61 59.0794 1296.59 59.1194C1293.8 59.0794 1291.05 59.8394 1288.68 61.3094C1286.63 62.3194 1285.29 64.3694 1285.19 66.6494C1285.19 70.0494 1288.42 72.4794 1294.88 73.9394L1303.96 76.2494C1315.9 79.1294 1321.87 85.0694 1321.87 94.0694V94.1094Z" fill="white"/>
<path d="M209.27 23.6396H225.35V48.0996L224.37 58.9296H225.35C227.17 55.9897 229.73 53.5796 232.77 51.9296C236.09 50.0796 239.84 49.1397 243.64 49.1996C250.13 48.6696 256.51 51.1896 260.89 56.0096C264.87 61.3696 266.85 67.9596 266.48 74.6296V110.77H250.4V76.5797C250.63 73.1796 249.57 69.8097 247.43 67.1497C245.29 64.9296 242.29 63.7496 239.2 63.9296C237.15 63.8896 235.12 64.3697 233.31 65.3297C231.59 66.2597 230.1 67.5596 228.95 69.1396C227.72 70.8496 226.81 72.7697 226.25 74.7997C225.62 77.0397 225.31 79.3496 225.33 81.6696V110.75H209.27V23.6396Z" fill="white"/>
<path d="M336.7 96.3893C333.98 101.189 330.13 105.239 325.47 108.189C320.27 111.319 314.29 112.879 308.22 112.689C303.87 112.739 299.55 111.929 295.51 110.319C291.73 108.809 288.28 106.559 285.38 103.689C282.5 100.829 280.22 97.4093 278.69 93.6493C277.06 89.6093 276.24 85.2893 276.3 80.9393C276.28 76.7493 277.07 72.5993 278.63 68.7093C281.64 61.1193 287.53 55.0293 295.02 51.7593C298.99 50.0293 303.27 49.1593 307.6 49.2193C312.01 49.1393 316.39 49.9493 320.49 51.5893C324.08 53.0593 327.31 55.2993 329.94 58.1593C332.52 61.0393 334.49 64.4093 335.71 68.0793C337.05 72.0793 337.71 76.2693 337.68 80.4893V81.9493C337.6 82.3893 337.56 82.8393 337.56 83.2893C337.47 83.7293 337.43 84.1793 337.44 84.6193H292.15C292.4 86.8193 293.09 88.9493 294.18 90.8893C295.16 92.5793 296.45 94.0693 297.99 95.2693C299.47 96.4293 301.16 97.2893 302.97 97.8093C304.76 98.3393 306.61 98.5993 308.48 98.5993C311.71 98.7293 314.91 97.8593 317.62 96.0993C319.99 94.4893 321.94 92.3393 323.33 89.8393L336.71 96.3893H336.7ZM322.09 73.2693C321.96 72.0393 321.61 70.8393 321.05 69.7393C320.38 68.3693 319.46 67.1293 318.35 66.0893C317.06 64.8893 315.56 63.9393 313.93 63.2893C311.91 62.5093 309.77 62.1393 307.61 62.1893C304.34 62.1393 301.15 63.1593 298.52 65.1093C295.84 67.1493 293.91 70.0093 293.01 73.2593H322.09V73.2693Z" fill="white"/>
<path d="M347.99 110.76V23.6396H364.07V110.76H347.99Z" fill="white"/>
<path d="M377.8 110.76V23.6396H393.9V110.76H377.8Z" fill="white"/>
<path d="M464 96.3893C461.28 101.189 457.42 105.239 452.77 108.189C447.58 111.319 441.59 112.879 435.52 112.689C431.17 112.729 426.85 111.929 422.81 110.319C419.03 108.809 415.58 106.549 412.68 103.689C409.8 100.829 407.52 97.4093 405.99 93.6493C404.36 89.6093 403.54 85.2893 403.59 80.9393C403.57 76.7493 404.36 72.5993 405.92 68.7093C408.93 61.1193 414.82 55.0293 422.31 51.7593C426.28 50.0293 430.57 49.1593 434.9 49.2193C439.31 49.1393 443.69 49.9493 447.79 51.5893C451.39 53.0593 454.61 55.2993 457.24 58.1593C459.82 61.0393 461.79 64.4093 463.01 68.0793C464.35 72.0793 465.02 76.2693 464.98 80.4893V81.9493C464.9 82.3893 464.86 82.8393 464.86 83.2893C464.78 83.7293 464.74 84.1793 464.74 84.6193H419.44C419.69 86.8193 420.38 88.9493 421.47 90.8893C422.45 92.5793 423.74 94.0693 425.28 95.2693C426.76 96.4293 428.45 97.2893 430.25 97.8093C432.04 98.3393 433.89 98.5993 435.76 98.5993C438.99 98.7293 442.19 97.8593 444.9 96.0993C447.27 94.4893 449.22 92.3393 450.6 89.8393L464 96.3893ZM449.39 73.2693C449.26 72.0393 448.9 70.8393 448.35 69.7393C447.68 68.3693 446.76 67.1293 445.65 66.0893C444.36 64.8893 442.86 63.9393 441.23 63.2893C439.22 62.5093 437.07 62.1393 434.91 62.1893C431.64 62.1393 428.45 63.1593 425.82 65.1093C423.14 67.1493 421.21 70.0093 420.31 73.2593H449.39V73.2693Z" fill="white"/>
<path d="M490.4 58.9297H491.38C493.26 55.9297 495.89 53.4797 499.01 51.8097C502.37 50.0197 506.13 49.1297 509.94 49.1997C513.34 49.1297 516.72 49.7497 519.88 51.0197C522.62 52.1397 525.04 53.9197 526.94 56.1897C528.85 58.5597 530.27 61.2897 531.11 64.2197C532.09 67.5997 532.56 71.1097 532.52 74.6197V110.76H516.42V76.5697C516.7 73.1397 515.67 69.7197 513.54 67.0197C511.31 64.8297 508.25 63.6997 505.13 63.9197C503.1 63.8797 501.09 64.3597 499.3 65.3197C497.62 66.2597 496.15 67.5397 495 69.0897C493.76 70.7697 492.85 72.6697 492.3 74.6797C491.67 76.9197 491.36 79.2297 491.38 81.5497V110.75H475.3V51.1297H490.39V58.9197L490.4 58.9297Z" fill="white"/>
<path d="M554.72 43.1095C553.35 43.1095 552 42.8395 550.73 42.3195C549.49 41.8095 548.37 41.0695 547.42 40.1295C546.48 39.2095 545.73 38.1095 545.21 36.9095C544.14 34.3295 544.14 31.4395 545.21 28.8595C547.56 23.5795 553.75 21.1995 559.03 23.5495C560.17 24.0595 561.2 24.7595 562.09 25.6295C566.09 29.4995 566.19 35.8795 562.32 39.8695C562.24 39.9495 562.17 40.0295 562.09 40.0995C560.14 42.0595 557.48 43.1495 554.72 43.1095ZM546.74 110.74V51.1395H562.84V110.74H546.74Z" fill="white"/>
<path d="M634.02 95.5397C631.45 100.51 627.67 104.76 623.03 107.89C617.78 111.25 611.64 112.92 605.41 112.7C601.02 112.75 596.66 111.95 592.58 110.33C588.81 108.83 585.38 106.57 582.51 103.7C579.66 100.82 577.41 97.4097 575.88 93.6597C574.25 89.6197 573.43 85.2997 573.48 80.9497C573.43 76.5797 574.25 72.2297 575.88 68.1697C577.39 64.4097 579.64 60.9897 582.51 58.1297C585.4 55.2897 588.82 53.0597 592.58 51.5597C596.66 49.9397 601.02 49.1397 605.41 49.1897C611.61 48.9797 617.72 50.6297 622.97 53.9397C627.57 56.9297 631.2 61.1997 633.4 66.2297L618.67 72.3097C617.48 69.7797 615.63 67.6197 613.33 66.0397C610.87 64.5497 608.03 63.8097 605.16 63.9197C603.09 63.9097 601.05 64.3197 599.15 65.1397C595.28 66.7897 592.26 69.9597 590.8 73.8997C589.16 78.4597 589.16 83.4497 590.8 88.0197C591.55 90.0197 592.7 91.8397 594.19 93.3697C595.61 94.8197 597.3 95.9697 599.16 96.7597C601.06 97.5697 603.11 97.9897 605.17 97.9797C608.17 98.0797 611.14 97.2897 613.7 95.7297C616.13 94.1197 618.06 91.8697 619.29 89.2297L634.01 95.5597L634.02 95.5397Z" fill="white"/>
</g>
<defs>
<clipPath id="clip0_51_1545">
<rect width="1321.87" height="138.91" fill="white"/>
</clipPath>
</defs>
</svg>
