<svg width="132" height="45" viewBox="0 0 132 45" fill="none" xmlns="http://www.w3.org/2000/svg">
<g id="logo_ringier">
<g id="Group_18592">
<path id="Path_79415" d="M87.2664 23.7519H90.5333C92.6127 23.7519 93.2951 23.9359 93.2951 25.2184C93.2951 26.7444 91.4252 28.1677 89.3243 28.1677C87.4544 28.1677 86.4389 26.8905 86.3959 25.884C86.3798 25.0831 86.6968 24.3092 87.2664 23.7519ZM105.379 13.9137C106.373 13.9137 106.691 14.6064 106.691 15.7537V17.5557H104.068V15.7591C104.068 14.3575 104.67 13.9191 105.379 13.9191M89.5715 13.9191C90.5494 13.9191 90.861 14.1951 90.8825 16.5978C90.861 19.1683 90.3184 19.3198 89.5715 19.3198C88.744 19.3198 88.3034 19.0493 88.3034 16.5383C88.3034 14.8391 88.4915 13.9191 89.5715 13.9191ZM105.519 13.5403C103.069 13.5403 100.952 15.6779 100.952 18.5027C100.861 21.0353 102.827 23.162 105.342 23.254C105.422 23.254 105.503 23.254 105.584 23.254C108.141 23.254 109.409 21.6684 109.866 19.5958H109.49C109.033 21.544 107.83 22.7561 106.212 22.7561C104.278 22.7561 104.068 21.1219 104.068 19.6986V17.9345H109.802C109.78 15.6725 107.706 13.4971 105.519 13.5403ZM93.7518 13.3726C93.1124 13.4267 92.5267 13.7622 92.1506 14.2925C91.3876 13.7676 90.4795 13.5025 89.5554 13.5403C87.8091 13.5403 85.9392 14.6876 85.9392 16.5978C85.9338 17.7289 86.6216 18.7462 87.664 19.1521V19.19C86.4389 19.2928 85.5147 20.3588 85.5846 21.5981C85.5846 22.6479 86.0628 23.4434 86.9332 23.6923V23.7356C86.1058 23.9629 85.1493 24.8017 85.1493 25.8082C85.1493 27.3559 86.9547 28.5465 89.2652 28.5465C92.156 28.5465 94.0474 26.5821 94.0474 24.0279C94.0474 21.9985 93.0479 21.0786 91.0115 21.1219H87.5619C87.0461 21.1219 86.3368 21.1002 86.3368 20.5374C86.3368 20.0125 87.2288 19.4497 88.024 19.4497C88.255 19.4605 88.4861 19.5038 88.7118 19.5796C88.9858 19.6662 89.2759 19.7095 89.5661 19.7041C91.35 19.7041 93.2629 18.6813 93.2629 16.6898C93.2575 15.8944 92.9351 15.1367 92.3763 14.5739C92.7524 14.1951 92.9405 13.7352 93.7465 13.6323V13.6756C93.3811 13.8272 93.15 14.2005 93.1823 14.601C93.1662 15.1151 93.5691 15.548 94.0796 15.5642C94.1011 15.5642 94.1172 15.5642 94.1387 15.5642C94.6975 15.5805 95.1596 15.1422 95.1811 14.5794C95.1811 14.5523 95.1811 14.5198 95.1811 14.4928C95.1811 13.7622 94.3912 13.3834 93.7679 13.3834M114.03 13.2589C113.595 13.8055 112.058 13.8055 111.204 13.8055H109.7V14.1843H111.204V22.6371H109.726V23.0105H115.497V22.6371H114.073V17.3013C114.073 15.6941 114.573 14.5631 115.884 13.9787H115.965C115.626 14.298 115.449 14.7471 115.465 15.2125C115.449 15.9485 116.029 16.56 116.76 16.5762C116.798 16.5762 116.841 16.5762 116.878 16.5762C117.738 16.56 118.42 15.8402 118.404 14.9744C118.388 14.1086 117.673 13.4213 116.814 13.4375C115.583 13.4592 114.492 14.2384 114.068 15.4019H114.025V13.2644L114.03 13.2589ZM99.485 13.2589C99.0498 13.8055 97.5131 13.8055 96.6587 13.8055H95.6056L95.7937 14.1843H96.6157V22.6371H95.2026V23.0105H100.801V22.6371H99.4797V13.2589H99.485ZM77.9116 13.2589C77.4764 13.8055 75.9396 13.8055 75.0853 13.8055H73.7098V14.1843H75.0423V22.6371H73.8441V23.0105H79.1313V22.6371H77.9062V16.9009C77.9062 15.8348 78.9433 14.3088 80.1093 14.3088C80.7111 14.3088 81.3343 14.5631 81.3343 16.0242V22.6371H80.1469V23.0105H85.2084L85.0795 22.6371H84.2036V16.7981C84.2036 14.5361 83.2472 13.5512 81.2752 13.5512C79.889 13.5133 78.5994 14.2655 77.9492 15.4939H77.9062V13.2589H77.9116ZM71.9312 13.2589C71.496 13.8055 69.9539 13.8055 69.1049 13.8055H67.5736V14.1843H69.0619V22.6371H68.2076L67.8798 23.0105H73.1241V22.6371H71.9312V13.2589ZM58.1167 8.65375H59.6373C61.4051 8.65375 62.2165 8.90809 62.2165 11.5002C62.2809 14.1194 61.6791 15.0393 59.2881 15.1638H58.1221V8.65375H58.1167ZM98.0558 8.36153C97.1262 8.36153 96.374 9.11914 96.374 10.0553C96.374 10.9915 97.1262 11.7491 98.0558 11.7491C98.9853 11.7491 99.7376 10.9915 99.7376 10.0553C99.7376 9.12455 98.9961 8.36153 98.0719 8.36153C98.0719 8.36153 98.0611 8.36153 98.0558 8.36153ZM70.4966 8.36153C69.567 8.36153 68.8148 9.12455 68.8201 10.0607C68.8201 10.9969 69.5778 11.7545 70.5073 11.7491C71.4369 11.7491 72.1838 10.9861 72.1838 10.0553C72.1891 9.12455 71.4423 8.36694 70.5235 8.36153C70.5127 8.36153 70.5073 8.36153 70.4966 8.36153ZM53.125 8.27494V8.65375H54.8767V22.6317H53.125V23.0051H59.6749V22.6317H58.1167V15.5372H59.2182C61.3621 15.5805 62.1681 16.0838 62.1681 19.4497C62.1681 21.755 62.7108 23.346 64.9299 23.346C66.5688 23.346 67.1652 22.9401 67.724 22.334L67.4768 22.0905C67.2404 22.3557 66.918 22.5289 66.5688 22.5884C65.7359 22.5884 65.4458 22.2799 65.4028 18.9897C65.3598 16.7494 63.866 15.5588 60.8141 15.2828V15.2396C62.9096 15.0934 65.6983 14.2547 65.6983 11.7221C65.6983 8.64834 61.9962 8.26953 59.7126 8.26953H53.125V8.27494Z" fill="white"/>
<path id="Path_79416" d="M18.3529 8.08594C15.1397 8.08594 12.5391 10.7051 12.5391 13.9412C12.5391 17.1773 15.1397 19.7964 18.3529 19.7964C21.5661 19.7964 24.1667 17.1773 24.1667 13.9412C24.1667 10.7051 21.5607 8.09135 18.3529 8.08594ZM18.3529 17.8267C16.2197 17.8267 14.4949 16.0841 14.4949 13.9358C14.4949 11.7874 16.2251 10.0503 18.3582 10.0503C20.486 10.0503 22.2162 11.7874 22.2162 13.9358C22.2162 16.0841 20.486 17.8212 18.3529 17.8267Z" fill="#E5007D"/>
<path id="Path_79417" d="M44.5794 19.7964C47.7926 19.7964 50.3932 17.1719 50.3932 13.9412C50.3932 10.7051 47.7872 8.08594 44.5794 8.08594C41.3716 8.08594 38.771 10.7051 38.7656 13.9358C38.7656 17.1665 41.3716 19.791 44.5794 19.791M44.5794 10.0503C46.7126 10.0503 48.4374 11.7928 48.4374 13.9412C48.4374 16.0896 46.7072 17.8267 44.5741 17.8267C42.4409 17.8267 40.7161 16.0841 40.7161 13.9358C40.7161 11.7874 42.4463 10.0503 44.5794 10.0503Z" fill="#009EE3"/>
<path id="Path_79418" d="M31.4622 8.08594C28.2491 8.08594 25.6484 10.7051 25.6484 13.9412C25.6484 17.1773 28.2491 19.7964 31.4622 19.7964C34.6754 19.7964 37.2761 17.1773 37.2761 13.9412C37.2761 10.7105 34.6701 8.09135 31.4622 8.08594ZM31.4622 17.8267C29.3291 17.8267 27.6043 16.0841 27.6043 13.9358C27.6043 11.7874 29.3345 10.0503 31.4676 10.0503C33.5954 10.0503 35.3256 11.7874 35.3256 13.9358C35.3256 16.0841 33.5954 17.8267 31.4622 17.8267Z" fill="#FFDE12"/>
<path id="Path_79419" d="M12.6694 29.3867C12.8468 29.3921 13.0778 29.403 13.3572 29.4084C13.6366 29.4138 13.916 29.4192 14.1954 29.4192C14.5662 29.4192 14.9208 29.4192 15.2539 29.4084C15.5871 29.403 15.8289 29.3975 15.9632 29.3975C16.6456 29.3488 17.328 29.5274 17.9029 29.9116C18.3167 30.2201 18.5531 30.7125 18.5424 31.2266C18.5424 31.508 18.4725 31.784 18.3489 32.0384C18.2038 32.3252 17.9943 32.5741 17.731 32.7635C17.3871 33.0016 17.0056 33.1748 16.5972 33.2722V33.2938C17.1292 33.3317 17.6504 33.4724 18.1232 33.7105C18.7519 34.0244 19.1495 34.6684 19.1388 35.3773C19.1603 36.0158 18.8755 36.6273 18.3704 37.0224C17.7471 37.4661 16.9895 37.688 16.2265 37.6393C16.0546 37.6393 15.802 37.6339 15.4581 37.623C15.1142 37.6122 14.7005 37.6068 14.2169 37.6068C13.9214 37.6068 13.6366 37.6068 13.3572 37.6122C13.0778 37.6122 12.8468 37.623 12.6694 37.6393V37.4066C12.8682 37.4066 13.0671 37.3687 13.2605 37.3146C13.3894 37.2713 13.4862 37.1685 13.5184 37.0332C13.5668 36.8275 13.5883 36.6165 13.5829 36.4054V30.626C13.5936 30.4149 13.5721 30.1984 13.5184 29.9928C13.4808 29.8629 13.3787 29.7547 13.2497 29.7114C13.0617 29.6519 12.8629 29.6248 12.6641 29.6248V29.3921L12.6694 29.3867ZM15.7214 29.6194C15.485 29.5869 15.2486 29.6573 15.0659 29.8196C14.9369 30.0686 14.8832 30.3446 14.9101 30.626V36.4054C14.8778 36.676 14.9369 36.952 15.0713 37.1901C15.2647 37.3362 15.5119 37.4012 15.7537 37.3687C16.3071 37.4228 16.8605 37.228 17.2635 36.8384C17.602 36.4109 17.7686 35.8751 17.731 35.3286C17.7632 34.8199 17.5967 34.322 17.2635 33.9432C16.8337 33.5752 16.2802 33.4021 15.7214 33.4562H14.5984V33.2559H15.5925C15.9417 33.2776 16.2856 33.1856 16.5758 32.9962C16.8068 32.823 16.9734 32.5741 17.0486 32.2981C17.1346 31.9951 17.1776 31.6758 17.1776 31.3619C17.2098 30.9019 17.0916 30.4474 16.8444 30.0632C16.5596 29.7439 16.1459 29.5815 15.7214 29.6248" fill="white"/>
<path id="Path_79420" d="M26.533 31.4961V36.3773C26.5115 36.6479 26.5759 36.9184 26.7103 37.1511C26.8768 37.3351 27.1186 37.4325 27.3658 37.4001V37.6436C27.124 37.6219 26.8876 37.6111 26.6458 37.6111C26.3932 37.6111 26.1461 37.6219 25.915 37.6436C25.7001 37.6652 25.4852 37.7085 25.281 37.7734V36.5017C25.1305 36.913 24.8458 37.2648 24.475 37.4975C24.1472 37.6923 23.7711 37.7951 23.395 37.7951C23.1478 37.8005 22.9007 37.7626 22.6642 37.6706C22.4762 37.6003 22.3096 37.492 22.1645 37.3513C22.0195 37.1782 21.9174 36.9725 21.8744 36.7507C21.8153 36.4476 21.7884 36.1338 21.7938 35.8253V32.8869C21.8153 32.6163 21.7508 32.3457 21.6218 32.113C21.4553 31.9236 21.2081 31.8316 20.9609 31.8641V31.6206C21.2081 31.6422 21.4445 31.653 21.6809 31.6584C21.9227 31.6584 22.1699 31.6476 22.4117 31.6206C22.6266 31.5989 22.8416 31.5556 23.0457 31.4961V36.1554C23.0457 36.361 23.0619 36.5667 23.0941 36.7723C23.1156 36.9401 23.1908 37.097 23.3144 37.2161C23.4702 37.3405 23.669 37.3946 23.8678 37.3784C24.2708 37.3784 24.647 37.1782 24.8726 36.8427C25.152 36.4639 25.2917 35.9985 25.2756 35.5277V32.8923C25.2971 32.6217 25.2326 32.3511 25.1037 32.1184C24.9371 31.929 24.6899 31.837 24.4428 31.8695V31.626C24.6899 31.6476 24.9264 31.6584 25.1628 31.6639C25.4046 31.6639 25.6517 31.653 25.8935 31.626C26.1085 31.6043 26.3234 31.561 26.5276 31.5015" fill="white"/>
<path id="Path_79421" d="M31.2703 31.4565C31.5443 31.4511 31.8183 31.4998 32.0762 31.6026C32.2482 31.6729 32.4148 31.7595 32.5652 31.8623C32.8177 32.0626 32.9789 31.9327 33.038 31.4673H33.2906C33.2745 31.6838 33.2637 31.9435 33.2583 32.252C33.253 32.5604 33.2476 32.9663 33.2476 33.4696H32.9951C32.9467 33.1827 32.8715 32.9013 32.7586 32.6308C32.6565 32.371 32.49 32.1383 32.275 31.9543C32.0386 31.7649 31.7485 31.6729 31.4476 31.6838C31.2165 31.6783 30.9908 31.7541 30.8135 31.9002C30.6362 32.0626 30.5449 32.2953 30.561 32.5334C30.561 32.7552 30.6308 32.9663 30.7705 33.1395C30.9264 33.3234 31.1037 33.4858 31.3079 33.6157L32.0171 34.0919C32.404 34.3462 32.764 34.6384 33.0918 34.9685C33.3873 35.277 33.5485 35.6937 33.5324 36.1212C33.5431 36.4459 33.441 36.7706 33.2476 37.0303C33.0542 37.2847 32.7962 37.4795 32.5007 37.5931C32.1783 37.723 31.8291 37.7879 31.4798 37.7825C31.3025 37.7825 31.1306 37.7663 30.9586 37.7284C30.8028 37.6959 30.6523 37.6527 30.5073 37.5931C30.4213 37.5444 30.3407 37.4957 30.2601 37.447C30.1795 37.3983 30.0989 37.3496 30.0237 37.3009C29.9646 37.2468 29.8786 37.2522 29.8249 37.3117C29.8249 37.3117 29.8195 37.3171 29.8141 37.3226C29.7335 37.4308 29.6905 37.5607 29.6744 37.6959H29.4219C29.438 37.447 29.4487 37.144 29.4595 36.7868C29.4649 36.4297 29.4702 35.9534 29.4702 35.3636H29.7228C29.7658 35.7478 29.8464 36.1266 29.9646 36.4946C30.0505 36.7868 30.2171 37.052 30.4428 37.2576C30.69 37.4524 31.0016 37.5498 31.3132 37.5336C31.5443 37.5336 31.7646 37.447 31.9473 37.3063C32.173 37.1115 32.2912 36.8193 32.2589 36.5216C32.2697 36.2024 32.1407 35.8939 31.9043 35.6775C31.6195 35.4177 31.3186 35.185 30.9962 34.974C30.7329 34.79 30.4858 34.606 30.2493 34.422C30.0237 34.2488 29.8302 34.0432 29.6744 33.8051C29.524 33.5561 29.4487 33.2747 29.4541 32.9825C29.4434 32.6741 29.5293 32.371 29.7013 32.1221C29.8732 31.8948 30.1043 31.7162 30.3676 31.6134C30.6523 31.4998 30.9532 31.4402 31.2595 31.4457" fill="white"/>
<path id="Path_79422" d="M37.6185 31.4963V36.5507C37.5916 36.7888 37.6615 37.0269 37.8066 37.2163C37.9946 37.3516 38.2203 37.4111 38.4513 37.3895V37.633C38.3224 37.6276 38.1182 37.6167 37.8442 37.6059C37.5701 37.5951 37.2907 37.5897 37.0059 37.5897C36.7373 37.5897 36.4579 37.5951 36.1731 37.6059C35.8883 37.6167 35.6734 37.6276 35.5391 37.633V37.3895C35.7647 37.4111 35.9958 37.3516 36.1838 37.2163C36.3343 37.0323 36.4041 36.7888 36.3719 36.5507V32.8925C36.3934 32.6219 36.3289 32.3513 36.2 32.1187C36.0334 31.9292 35.7862 31.8373 35.5391 31.8697V31.6262C35.7862 31.6479 36.0226 31.6587 36.2591 31.6641C36.5062 31.6641 36.748 31.6533 36.9952 31.6262C37.2101 31.6046 37.4197 31.5613 37.6239 31.5017M36.9307 28.6932C37.151 28.6878 37.3713 28.7689 37.5325 28.9204C37.8442 29.2127 37.8603 29.7051 37.5648 30.0136C37.554 30.0244 37.5433 30.0352 37.5325 30.046C37.1886 30.3491 36.6728 30.3491 36.3289 30.046C36.0173 29.7538 36.0012 29.2614 36.2913 28.9529C36.3021 28.9421 36.3128 28.9313 36.3289 28.915C36.4901 28.7635 36.7104 28.6823 36.9307 28.6878" fill="white"/>
<path id="Path_79423" d="M44.2223 31.4587C44.4802 31.4478 44.7381 31.4911 44.9799 31.5831C45.168 31.6589 45.3345 31.7725 45.4742 31.9132C45.6193 32.0756 45.7214 32.2704 45.7698 32.4814C45.8342 32.7899 45.8665 33.1092 45.8557 33.423V36.5455C45.8289 36.7836 45.8987 37.0217 46.0492 37.2111C46.2372 37.3464 46.4629 37.4059 46.694 37.3843V37.6278C46.565 37.6224 46.3608 37.6115 46.0814 37.6007C45.802 37.5899 45.528 37.5845 45.2593 37.5845C44.996 37.5845 44.7381 37.5899 44.4802 37.6007C44.2223 37.6115 44.0288 37.6224 43.8945 37.6278V37.3843C44.0933 37.4059 44.2975 37.341 44.448 37.2111C44.5769 37.0163 44.636 36.7782 44.6092 36.5455V33.0983C44.6092 32.8927 44.593 32.6871 44.55 32.4868C44.4909 32.0972 44.1363 31.8266 43.7548 31.8753C43.3357 31.8699 42.9381 32.0702 42.6963 32.4111C42.4115 32.7953 42.2718 33.2607 42.2826 33.7423V36.5509C42.2557 36.7836 42.3148 37.0217 42.4491 37.2165C42.5996 37.3464 42.7984 37.4113 42.9972 37.3897V37.6332C42.8736 37.6278 42.6855 37.617 42.4384 37.6061C42.1912 37.5953 41.9279 37.5899 41.6593 37.5899C41.3906 37.5899 41.1219 37.5953 40.8372 37.6061C40.5524 37.617 40.3375 37.6278 40.2031 37.6332V37.3897C40.4288 37.4113 40.6598 37.3518 40.8479 37.2165C40.9984 37.0325 41.0682 36.789 41.0413 36.5509V32.8927C41.0628 32.6221 40.9984 32.3516 40.8694 32.1189C40.7028 31.9295 40.4557 31.8375 40.2085 31.8699V31.6264C40.4557 31.6481 40.6921 31.6589 40.9231 31.6589C41.1703 31.6589 41.4121 31.6481 41.6593 31.621C41.8742 31.5994 42.0837 31.5561 42.2879 31.4965V32.7682C42.4384 32.3461 42.7339 31.989 43.1154 31.7563C43.4593 31.5669 43.8408 31.4641 44.233 31.4641" fill="white"/>
<path id="Path_79424" d="M51.2374 31.4562C51.8339 31.4238 52.4142 31.6456 52.8333 32.0732C53.2631 32.6305 53.4727 33.3286 53.4136 34.0321H49.4213L49.3998 33.8103H52.1885C52.1992 33.4585 52.167 33.1013 52.0971 32.755C52.0488 32.4736 51.9359 32.2139 51.7748 31.9812C51.6404 31.7918 51.4255 31.6835 51.1944 31.6889C50.8344 31.7052 50.512 31.9054 50.3347 32.2193C50.0446 32.7388 49.8941 33.3178 49.8888 33.9131L49.921 33.9726C49.9156 34.0808 49.9049 34.1999 49.8995 34.3298C49.8941 34.4596 49.8888 34.5841 49.8888 34.7086C49.8726 35.174 49.9586 35.6339 50.1306 36.0614C50.2649 36.3915 50.4852 36.6729 50.7646 36.884C50.9956 37.0572 51.275 37.1546 51.5652 37.16C52.2852 37.1708 52.9354 36.7379 53.2094 36.0669L53.4404 36.1589C53.3384 36.4402 53.1933 36.7054 53.0106 36.9381C52.8118 37.1979 52.5592 37.4143 52.2691 37.5604C51.9413 37.7228 51.5813 37.8094 51.2159 37.7985C50.7216 37.8094 50.2326 37.6849 49.8028 37.4306C49.3944 37.1816 49.072 36.8136 48.8786 36.3753C48.6529 35.8612 48.5401 35.3038 48.5562 34.7464C48.5401 34.1404 48.6529 33.5343 48.8893 32.9769C49.287 32.0299 50.2219 31.4292 51.2374 31.4617" fill="white"/>
<path id="Path_79425" d="M57.5486 31.4565C57.8226 31.4511 58.0966 31.4998 58.3546 31.6026C58.5265 31.6729 58.6931 31.7595 58.8489 31.8623C59.1014 32.0626 59.2626 31.9327 59.3217 31.4673H59.5743C59.5582 31.6838 59.5474 31.9435 59.542 32.252C59.5367 32.5604 59.5313 32.9663 59.5313 33.4696H59.2787C59.2304 33.1827 59.1552 32.9013 59.0423 32.6308C58.9402 32.371 58.7737 32.1383 58.5587 31.9543C58.3223 31.7649 58.0322 31.6729 57.7313 31.6838C57.5002 31.6783 57.2745 31.7541 57.0972 31.9002C56.9199 32.0626 56.8286 32.2953 56.8447 32.5334C56.8447 32.7552 56.9145 32.9663 57.0542 33.1395C57.2101 33.3234 57.3874 33.4858 57.5916 33.6157L58.3008 34.0919C58.6877 34.3462 59.0477 34.6384 59.3755 34.9685C59.671 35.277 59.8322 35.6937 59.8161 36.1212C59.8268 36.4459 59.7247 36.7706 59.5313 37.0303C59.3379 37.2847 59.0799 37.4795 58.7844 37.5931C58.462 37.723 58.1128 37.7879 57.7689 37.7825C57.5916 37.7825 57.4196 37.7663 57.2477 37.7284C57.0919 37.6959 56.9414 37.6527 56.7963 37.5931C56.7104 37.5444 56.6298 37.4957 56.5492 37.447C56.4686 37.3983 56.388 37.3496 56.3127 37.3009C56.2536 37.2468 56.1677 37.2522 56.1139 37.3117C56.1139 37.3117 56.1086 37.3171 56.1032 37.3226C56.028 37.4308 55.9796 37.5607 55.9635 37.6959H55.7109C55.7271 37.447 55.7378 37.144 55.7485 36.7868C55.7593 36.4297 55.7593 35.9534 55.7593 35.3636H56.0118C56.0548 35.7478 56.1354 36.1266 56.2536 36.4946C56.3396 36.7868 56.5062 37.052 56.7318 37.2576C56.979 37.4524 57.2907 37.5498 57.6077 37.5336C57.8387 37.5336 58.059 37.447 58.2417 37.3063C58.4674 37.1115 58.5856 36.8193 58.5534 36.5216C58.5641 36.2024 58.4352 35.8939 58.1987 35.6775C57.914 35.4177 57.6131 35.185 57.2907 34.974C57.0274 34.79 56.7802 34.606 56.5438 34.422C56.3181 34.2488 56.1247 34.0432 55.9688 33.8051C55.8184 33.5561 55.7432 33.2747 55.7485 32.9825C55.7378 32.6741 55.8238 32.371 55.9957 32.1221C56.1677 31.8948 56.3987 31.7162 56.662 31.6134C56.9468 31.4998 57.2477 31.4402 57.5539 31.4457" fill="white"/>
<path id="Path_79426" d="M63.9704 31.4565C64.2445 31.4511 64.5185 31.4998 64.7764 31.6026C64.9484 31.6729 65.1149 31.7595 65.2708 31.8623C65.5233 32.0626 65.6845 31.9327 65.7436 31.4673H65.9962C65.98 31.6838 65.9693 31.9435 65.9639 32.252C65.9585 32.5604 65.9532 32.9663 65.9532 33.4696H65.7006C65.6523 33.1827 65.577 32.9013 65.4642 32.6308C65.3621 32.371 65.1955 32.1383 64.9806 31.9543C64.7442 31.7649 64.454 31.6729 64.1531 31.6838C63.9221 31.6783 63.6964 31.7541 63.5191 31.9002C63.3418 32.0626 63.2504 32.2953 63.2666 32.5334C63.2666 32.7552 63.3364 32.9663 63.4761 33.1395C63.6319 33.3234 63.8093 33.4858 64.0134 33.6157L64.7227 34.0919C65.1096 34.3462 65.4696 34.6384 65.7973 34.9685C66.0929 35.277 66.2541 35.6937 66.2379 36.1212C66.2487 36.4459 66.1466 36.7706 65.9532 37.0303C65.7597 37.2847 65.5018 37.4795 65.2063 37.5931C64.8839 37.723 64.5346 37.7879 64.1908 37.7825C64.0134 37.7825 63.8415 37.7663 63.6696 37.7284C63.5137 37.6959 63.3633 37.6527 63.2182 37.5931C63.1322 37.5444 63.0516 37.4957 62.971 37.447C62.8904 37.3983 62.8098 37.3496 62.7346 37.3009C62.6755 37.2468 62.5895 37.2522 62.5358 37.3117C62.5358 37.3117 62.5304 37.3171 62.5251 37.3226C62.4498 37.4308 62.4015 37.5607 62.3854 37.6959H62.1328C62.1489 37.447 62.1597 37.144 62.1651 36.7868C62.1704 36.4297 62.1758 35.9534 62.1758 35.3636H62.4283C62.4713 35.7478 62.5519 36.1266 62.6701 36.4946C62.7561 36.7868 62.9227 37.052 63.1483 37.2576C63.3955 37.4524 63.7072 37.5498 64.0242 37.5336C64.2552 37.5336 64.4755 37.447 64.6582 37.3063C64.8839 37.1115 65.0021 36.8193 64.9699 36.5216C64.9806 36.2024 64.8517 35.8939 64.6152 35.6775C64.3305 35.4177 64.0296 35.185 63.7072 34.974C63.4439 34.79 63.1967 34.606 62.9603 34.422C62.7346 34.2488 62.5412 34.0432 62.3854 33.8051C62.2349 33.5561 62.1597 33.2747 62.1651 32.9825C62.1543 32.6741 62.2403 32.371 62.4122 32.1221C62.5842 31.8948 62.8152 31.7162 63.0785 31.6134C63.3633 31.4998 63.6642 31.4402 63.9704 31.4457" fill="white"/>
<path id="Path_79427" d="M72.3936 29.3843C72.5709 29.3897 72.8019 29.4006 73.0813 29.406C73.3607 29.4114 73.6401 29.4168 73.9196 29.4168C74.2903 29.4168 74.6449 29.4168 74.9781 29.406C75.3112 29.4006 75.553 29.3951 75.6873 29.3951C76.4718 29.3356 77.2509 29.5629 77.885 30.0337C78.3632 30.445 78.6319 31.0565 78.6157 31.6896C78.6157 31.9873 78.562 32.2849 78.4707 32.5663C78.3686 32.8856 78.1966 33.1724 77.9656 33.4159C77.6915 33.6973 77.3584 33.9138 76.993 34.049C76.4933 34.2276 75.9614 34.3088 75.4294 34.2926H74.2957V34.0599H75.3166C75.7357 34.0869 76.1494 33.9787 76.5041 33.746C76.7727 33.5404 76.9715 33.2481 77.0575 32.918C77.1542 32.5555 77.2026 32.1875 77.2026 31.8087C77.2456 31.2296 77.1059 30.6506 76.8103 30.1528C76.4718 29.7523 75.9614 29.5467 75.4455 29.6062C75.2091 29.5737 74.9727 29.6441 74.79 29.8064C74.6611 30.0553 74.6073 30.3313 74.6342 30.6127V36.3706C74.6234 36.5925 74.6557 36.8089 74.7255 37.02C74.79 37.1661 74.919 37.2689 75.0748 37.3068C75.322 37.3609 75.5745 37.3879 75.827 37.3879V37.6315C75.6175 37.6152 75.3488 37.6044 75.0157 37.6044C74.6825 37.6044 74.3387 37.599 73.984 37.599C73.6778 37.599 73.3822 37.599 73.0975 37.6044C72.818 37.6044 72.5762 37.6206 72.3882 37.6315V37.3988C72.587 37.3988 72.7858 37.3609 72.9792 37.3068C73.1082 37.2635 73.2049 37.1607 73.2372 37.0254C73.2855 36.8197 73.307 36.6087 73.3016 36.3976V30.6127C73.3124 30.4017 73.2909 30.1852 73.2372 29.9796C73.1995 29.8497 73.0974 29.7415 72.9685 29.6982C72.7804 29.6387 72.5816 29.6116 72.3828 29.6116V29.3789L72.3936 29.3843Z" fill="white"/>
<path id="Path_79428" d="M81.8814 37.7147C81.473 37.7526 81.07 37.6119 80.7745 37.3251C80.5435 37.0491 80.4199 36.692 80.4306 36.3294C80.4199 36.0372 80.5005 35.7558 80.6617 35.5123C80.8229 35.2958 81.0217 35.1226 81.2581 34.9928C81.5053 34.8521 81.7632 34.7384 82.0319 34.641C82.3059 34.5436 82.5638 34.4516 82.8056 34.3596C83.0205 34.2839 83.2247 34.181 83.4074 34.0512C83.5579 33.9538 83.6438 33.786 83.6438 33.6074V32.8173C83.6546 32.5846 83.6062 32.3574 83.5095 32.1463C83.4343 31.9894 83.3053 31.8649 83.1495 31.7891C82.9775 31.7134 82.7949 31.6809 82.6122 31.6863C82.4187 31.6863 82.2307 31.7134 82.048 31.7621C81.8599 31.8054 81.6933 31.9082 81.5751 32.0597C81.7417 32.103 81.8868 32.2004 81.9996 32.3357C82.1125 32.4764 82.1716 32.6604 82.1662 32.8444C82.1769 33.0392 82.0963 33.2286 81.9513 33.3585C81.8008 33.483 81.6074 33.5533 81.4139 33.5425C81.2098 33.5587 81.011 33.4721 80.882 33.3152C80.7638 33.1637 80.7047 32.9743 80.71 32.7849C80.7047 32.6009 80.7584 32.4223 80.8659 32.2708C80.9841 32.1247 81.1238 32.0002 81.2742 31.8974C81.4945 31.7567 81.7363 31.6539 81.9835 31.5835C82.3005 31.4969 82.6229 31.4536 82.9507 31.4536C83.2408 31.4482 83.531 31.4861 83.8104 31.5619C84.0414 31.6268 84.2456 31.7513 84.4176 31.919C84.611 32.0976 84.7453 32.3303 84.7991 32.5901C84.8635 32.9093 84.8958 33.2394 84.8904 33.5641V36.7786C84.8797 36.9193 84.9065 37.06 84.9603 37.1844C85.014 37.271 85.1107 37.3251 85.2128 37.3143C85.3041 37.3143 85.3901 37.2927 85.4653 37.244C85.5459 37.1952 85.6212 37.1411 85.6964 37.0816L85.8146 37.2818C85.6641 37.4063 85.4976 37.5145 85.3256 37.5957C85.1268 37.6823 84.9119 37.7202 84.697 37.7093C84.3853 37.7526 84.0683 37.639 83.8587 37.4063C83.719 37.2007 83.6492 36.9571 83.6438 36.7082C83.4665 37.0437 83.1871 37.3197 82.854 37.4929C82.5477 37.639 82.2145 37.7093 81.876 37.7093M82.5101 37.152C82.7196 37.152 82.9238 37.0924 83.1011 36.9842C83.3268 36.8381 83.5149 36.6433 83.6438 36.4052V34.0836C83.5202 34.2622 83.3483 34.3975 83.1549 34.4787C82.9346 34.5815 82.7089 34.6897 82.4832 34.8088C82.2575 34.9278 82.0587 35.0902 81.8975 35.2904C81.7202 35.5339 81.6342 35.8315 81.6557 36.1292C81.6342 36.4052 81.7202 36.6866 81.8975 36.8976C82.0587 37.06 82.279 37.1465 82.5101 37.1411" fill="white"/>
<path id="Path_79429" d="M91.0884 31.4585C91.2872 31.4531 91.486 31.5018 91.6633 31.5992C91.9642 31.767 92.1523 32.0917 92.1415 32.438C92.1415 32.6491 92.077 32.8547 91.9373 33.0171C91.803 33.174 91.6042 33.266 91.4 33.2552C91.2227 33.2552 91.0454 33.1956 90.9111 33.082C90.7767 32.9629 90.7015 32.7844 90.7069 32.6058C90.7069 32.4488 90.7499 32.2973 90.8412 32.1674C90.9218 32.0538 91.0293 31.9564 91.1475 31.8806C91.0669 31.8157 90.9702 31.7886 90.8681 31.7995C90.5887 31.8157 90.3254 31.9402 90.1319 32.1404C89.9116 32.3623 89.7451 32.6274 89.6269 32.9142C89.514 33.1794 89.4495 33.4662 89.4442 33.753V36.4317C89.4066 36.7239 89.5248 37.0162 89.7558 37.1947C90.0245 37.3354 90.32 37.4058 90.6209 37.3841V37.6277C90.4436 37.6222 90.1911 37.6114 89.8633 37.6006C89.5355 37.5898 89.1916 37.5844 88.8263 37.5844C88.5469 37.5844 88.2728 37.5898 87.9934 37.6006C87.714 37.6114 87.5045 37.6222 87.3594 37.6277V37.3841C87.585 37.4058 87.8161 37.3463 88.0042 37.211C88.1546 37.027 88.2245 36.7835 88.1976 36.5454V32.8872C88.2191 32.6166 88.1546 32.346 88.0256 32.1133C87.8591 31.9239 87.6119 31.8319 87.3647 31.8644V31.6209C87.6119 31.6425 87.8483 31.6534 88.0848 31.6534C88.3319 31.6534 88.5737 31.6425 88.8209 31.6155C89.0358 31.5938 89.2454 31.5505 89.4496 31.491V32.8331C89.5463 32.6004 89.6699 32.3839 89.8203 32.1783C89.9708 31.9726 90.1588 31.7941 90.3737 31.6588C90.5887 31.5235 90.8358 31.4531 91.0937 31.4531" fill="white"/>
<path id="Path_79430" d="M95.8105 29.6992V31.6311H97.4063V31.8638H95.8105V36.442C95.789 36.6801 95.8481 36.9182 95.9824 37.1184C96.1114 37.2537 96.2941 37.3295 96.4821 37.3186C96.6863 37.3186 96.8797 37.2266 97.0195 37.0751C97.2183 36.837 97.358 36.5502 97.4278 36.2471L97.6481 36.3283C97.5675 36.7125 97.4009 37.0697 97.1592 37.3727C96.8959 37.6704 96.5144 37.8273 96.1221 37.8003C95.8965 37.8057 95.6761 37.7732 95.4612 37.7028C95.2893 37.6379 95.1335 37.5405 94.9991 37.416C94.8272 37.2375 94.709 37.0156 94.6552 36.7721C94.5854 36.4474 94.5531 36.1119 94.5639 35.7818V31.8692H93.5V31.6365H94.5639V29.9373C94.7896 29.9319 95.0152 29.9103 95.2355 29.8724C95.4344 29.8399 95.6278 29.7858 95.8159 29.7046" fill="white"/>
<path id="Path_79431" d="M103.085 31.4587C103.343 31.4478 103.6 31.4911 103.842 31.5831C104.03 31.6589 104.197 31.7725 104.331 31.9132C104.476 32.0756 104.578 32.2704 104.627 32.4814C104.691 32.7899 104.723 33.1092 104.713 33.423V36.5455C104.686 36.7836 104.756 37.0217 104.901 37.2111C105.089 37.3464 105.314 37.4059 105.546 37.3843V37.6278C105.417 37.6224 105.212 37.6115 104.933 37.6007C104.654 37.5899 104.38 37.5845 104.111 37.5845C103.848 37.5845 103.59 37.5899 103.332 37.6007C103.074 37.6115 102.88 37.6224 102.746 37.6278V37.3843C102.945 37.4059 103.149 37.341 103.3 37.2111C103.428 37.0163 103.488 36.7782 103.461 36.5455V33.0983C103.461 32.8927 103.445 32.6871 103.402 32.4868C103.343 32.0972 102.988 31.8266 102.606 31.8753C102.187 31.8699 101.79 32.0702 101.548 32.4111C101.263 32.7953 101.123 33.2607 101.134 33.7423V36.5509C101.107 36.7836 101.166 37.0217 101.301 37.2165C101.451 37.3464 101.65 37.4113 101.849 37.3897V37.6332C101.725 37.6278 101.537 37.617 101.29 37.6061C101.037 37.5953 100.779 37.5899 100.511 37.5899C100.242 37.5899 99.9735 37.5953 99.6887 37.6061C99.404 37.617 99.189 37.6278 99.0547 37.6332V37.3897C99.2857 37.4113 99.5114 37.3518 99.6995 37.2165C99.8499 37.0325 99.9198 36.789 99.8875 36.5509V32.8927C99.909 32.6221 99.8446 32.3516 99.7156 32.1189C99.549 31.9295 99.3019 31.8375 99.0547 31.8699V31.6264C99.3019 31.6481 99.5383 31.6589 99.7747 31.6589C100.022 31.6589 100.264 31.6481 100.511 31.621C100.726 31.5994 100.935 31.5561 101.139 31.4965V32.7682C101.29 32.3461 101.585 31.989 101.967 31.7563C102.311 31.5669 102.692 31.4641 103.085 31.4641" fill="white"/>
<path id="Path_79432" d="M110.097 31.4562C110.693 31.4238 111.274 31.6456 111.693 32.0732C112.123 32.6305 112.332 33.3286 112.273 34.0321H108.281L108.259 33.8103H111.048C111.059 33.4585 111.026 33.1013 110.957 32.755C110.908 32.4736 110.795 32.2139 110.634 31.9812C110.5 31.7918 110.285 31.6835 110.054 31.6889C109.694 31.7052 109.371 31.9054 109.194 32.2193C108.904 32.7388 108.754 33.3178 108.748 33.9131L108.786 33.9726C108.78 34.0808 108.77 34.1999 108.764 34.3298C108.759 34.4596 108.754 34.5841 108.754 34.7086C108.737 35.174 108.823 35.6339 108.995 36.0614C109.13 36.3915 109.35 36.6729 109.629 36.884C109.86 37.0572 110.14 37.1546 110.425 37.16C111.145 37.1708 111.8 36.7379 112.069 36.0669L112.3 36.1589C112.198 36.4402 112.053 36.7054 111.87 36.9381C111.671 37.1979 111.419 37.4143 111.128 37.5604C110.801 37.7228 110.441 37.8094 110.075 37.7985C109.581 37.8094 109.092 37.6849 108.662 37.4306C108.254 37.1816 107.931 36.8136 107.738 36.3753C107.512 35.8612 107.399 35.3038 107.416 34.7464C107.399 34.1404 107.512 33.5343 107.749 32.9769C108.146 32.0299 109.081 31.4292 110.097 31.4617" fill="white"/>
<path id="Path_79433" d="M117.963 31.4585C118.162 31.4531 118.361 31.5018 118.538 31.5992C118.839 31.767 119.027 32.0917 119.017 32.438C119.017 32.6491 118.952 32.8547 118.812 33.0171C118.678 33.174 118.479 33.266 118.275 33.2552C118.098 33.2552 117.92 33.1956 117.786 33.082C117.652 32.9629 117.577 32.7844 117.582 32.6058C117.582 32.4488 117.625 32.2973 117.716 32.1674C117.797 32.0538 117.904 31.9564 118.022 31.8806C117.942 31.8157 117.845 31.7886 117.743 31.7995C117.464 31.8157 117.2 31.9402 117.007 32.1404C116.792 32.3623 116.62 32.6274 116.502 32.9142C116.389 33.1794 116.325 33.4662 116.319 33.753V36.4317C116.282 36.7239 116.4 37.0162 116.631 37.1947C116.899 37.3354 117.195 37.4058 117.496 37.3841V37.6277C117.319 37.6222 117.066 37.6114 116.738 37.6006C116.411 37.5898 116.067 37.5844 115.701 37.5844C115.422 37.5844 115.148 37.5898 114.868 37.6006C114.589 37.6114 114.379 37.6222 114.234 37.6277V37.3841C114.46 37.4058 114.691 37.3463 114.879 37.211C115.03 37.027 115.099 36.7835 115.073 36.5454V32.8872C115.094 32.6166 115.03 32.346 114.901 32.1133C114.734 31.9239 114.487 31.8319 114.24 31.8644V31.6209C114.487 31.6425 114.723 31.6534 114.96 31.6534C115.207 31.6534 115.449 31.6425 115.696 31.6155C115.911 31.5938 116.12 31.5505 116.325 31.491V32.8331C116.421 32.6004 116.545 32.3839 116.695 32.1783C116.846 31.9726 117.034 31.7941 117.249 31.6588C117.464 31.5235 117.711 31.4531 117.969 31.4531" fill="white"/>
<path id="Rectangle_7380" d="M5.13427 1.54297H126.477C128.519 1.54297 130.174 3.20971 130.174 5.26609V40.008C130.174 42.0644 128.519 43.7311 126.477 43.7311H5.13427C3.09245 43.7311 1.4375 42.0644 1.4375 40.008V5.26609C1.4375 3.20971 3.09245 1.54297 5.13427 1.54297Z" stroke="#696969" stroke-width="2" stroke-miterlimit="10"/>
</g>
</g>
</svg>
